<svg xmlns="http://www.w3.org/2000/svg" id="tiletango-logo"
     viewBox="0 0 500 500" shape-rendering="geometricPrecision" text-rendering="geometricPrecision"
>
    <g id="tiletango-logo-u-dots" transform="translate(.000001 0.000001)">
        <path id="tiletango-logo-u-blue-dot"
              d="M138.943695,291.683594c-29.527359-.9422-51.032539-14.003449-63.57177-40.461716-18.991478-40.072754,6.837395-88.875915,50.617127-96.188095c45.451668-7.5914,84.959938,28.828094,80.910896,74.585266-2.888412,32.641144-29.910187,59.270416-62.536194,61.633484-1.660019.120239-3.316955.282867-5.420059.431061Z"
              fill="#4a90e2"/>
        <path id="tiletango-logo-u-blue-dot2"
              d="M138.943695,291.683594c-29.527359-.9422-51.032539-14.003449-63.57177-40.461716-18.991478-40.072754,6.837395-88.875915,50.617127-96.188095c45.451668-7.5914,84.959938,28.828094,80.910896,74.585266-2.888412,32.641144-29.910187,59.270416-62.536194,61.633484-1.660019.120239-3.316955.282867-5.420059.431061Z"
              transform="translate(155.909424-152.766892)" fill="#4a90e2"/>
        <path id="tiletango-logo-u-orange-dot"
              d="M138.943695,291.683594c-29.527359-.9422-51.032539-14.003449-63.57177-40.461716-18.991478-40.072754,6.837395-88.875915,50.617127-96.188095c45.451668-7.5914,84.959938,28.828094,80.910896,74.585266-2.888412,32.641144-29.910187,59.270416-62.536194,61.633484-1.660019.120239-3.316955.282867-5.420059.431061Z"
              transform="translate(0-152.766892)" fill="#f5a623"/>
    </g>
</svg>