<svg id="tiletango-logo" xmlns="http://www.w3.org/2000/svg"
     viewBox="0 0 500 500" shape-rendering="geometricPrecision" text-rendering="geometricPrecision"
>
    <path id="tiletango-logo-u-o"
          d="M435.624878,455.55188c-18.778839-3.328705-32.663818-13.290894-36.39325-31.532532-3.376281-16.514435-5.29895-34.346924,6.981965-49.161682c11.804138-14.239624,27.213745-19.678589,45.086669-15.201447c16.901673,4.233887,29.201386,14.840516,31.756134,32.607026c1.576081,10.960418,1.436188,22.858673-1.1268,33.57193-4.614258,19.287689-24.556641,31.212249-46.304718,29.716705m14.748566-25.499481c5.519195-4.297882,8.182098-9.848755,7.834289-16.930451-.228668-4.655517.014069-9.332184-.060699-13.99765-.150116-9.369141-7.402558-17.62616-15.889771-18.181915-9.551361-.625427-17.88739,6.152221-18.810791,16.124664-.611389,6.603027-.67572,13.377045.056244,19.95871c1.460938,13.137054,15.369995,20.631164,26.870728,13.026642Z"
          fill="#f5a623"/>
    <path id="tiletango-logo-u-g"
          d="M356.827911,360.020325c3.183319,1.160522,5.962342,2.242401,8.991272,3.42157c2.176575-3.18216,4.1474-6.626801,6.667206-9.60727c3.27594-3.874786,8.580414-4.18927,12.530518-1.215851c4.249389,3.1987,4.45816,7.965332.357757,11.372254-2.92453,2.429962-6.017669,4.657013-9.39804,7.25296c7.047027,9.205383,8.306213,19.397614,6.306732,30.032166-2.617096,13.919616-14.82901,24.849975-30.08725,26.517578-6.196503.677215-12.558502-.278046-18.840607-.18396-1.596374.023895-3.175232,1.220398-4.762115,1.878082.922638,1.704163,1.496856,4.490936,2.829864,4.919952c5.028321,1.618225,10.28479,2.564667,15.490601,3.585175c7.008362,1.373901,14.147156,2.196869,21.053497,3.951019c11.399872,2.895569,18.952576,11.224182,19.950836,21.103729c1.28769,12.744233-3.427185,22.663147-14.550415,28.203461-19.436798,9.681244-39.187652,9.292328-58.590393-.160065-18.655456-9.088317-18.218933-32.026336-2.158416-40.837982.545532-.299347,1.002716-.759704,1.92871-1.475586-5.388641-3.441009-9.033477-8.194122-7.300903-14.170288c1.486969-5.128814,5.013855-9.666229,8.007233-15.139099-1.426575-1.781219-4.463288-4.521484-6.206116-7.924408-9.347565-18.251587-5.971374-47.06427,24.662933-52.233063c7.326874-1.236236,15.129151.345398,23.117096.709626m1.174103,34.366333c-.84729-4.497681-1.048096-9.252442-2.70816-13.426911-2.000733-5.031128-6.556641-7.170623-12.087891-7.039825-5.401733.127746-9.365204,2.691437-11.337372,7.495697-3.346039,8.150909-3.365692,16.556671.387909,24.589142c2.305817,4.934295,6.700775,7.188324,12.206299,6.978454c5.315643-.202606,9.324646-2.749969,11.284241-7.596832c1.273468-3.149902,1.536072-6.708466,2.254974-10.999725m5.064301,73.982177c.392486-4.930877-1.694306-8.675994-6.305329-10.115325-5.798584-1.810029-11.782531-3.202302-17.786194-4.128174-5.652435-.871704-11.538543,3.733612-13.370361,9.625915-1.720917,5.535736.261078,11.151764,5.477417,14.12796c8.052796,4.594544,16.461426,4.720459,24.807984.822907c3.939453-1.83963,6.640808-4.927155,7.176483-10.333283Z"
          fill="#f5a623"/>
    <path id="tiletango-logo-u-n"
          d="M206.264771,362.382385c3.456665-1.163727,6.57904-2.682647,9.772995-2.85202c8.000305-.424133,11.503417,3.218811,12.846237,12.426086.528625-.906097.933365-1.918151,1.604309-2.702545c11.58583-13.544494,30.77417-14.861603,44.052002-2.973999c9.332885,8.355652,13.938659,19.025238,14.163391,31.399079.281341,15.491668.031647,30.99234.136932,46.488281.029053,4.273804-1.864288,7.490509-5.746155,8.301941-4.244781.88739-8.847961,1.074524-13.137664.463257-4.820282-.68686-7.113404-4.04065-7.036683-9.294587.214142-14.6604.040619-29.326141.088654-43.989502.019867-6.070282-2.29602-11.032836-6.874878-14.891937-9.626037-8.112915-24.066147-2.818298-26.1996,9.622132-.475739,2.774017-.620712,5.632446-.634171,8.453338-.063598,13.330231-.245163,26.666046.072419,39.988983.136459,5.725464-2.443039,9.153015-7.487153,10.1185-3.907775.748016-8.255371.556885-12.146423-.344055-3.982376-.922119-6.043396-4.023773-6.017486-8.612396.141113-24.993897.015777-49.989319.163208-74.983155.012527-2.123413,1.354171-4.238983,2.380066-6.617401Z"
          fill="#f5a623"/>
    <path id="tiletango-logo-u-a"
          d="M110.806839,410.832367c9.717667-8.72644,21.559479-9.755127,33.373062-10.644714c4.76091-.35849,9.571335-.059143,14.267273-.059143c1.474274-13.139679-6.591995-22.039185-18.872955-20.780365-5.351944.548614-10.692032,2.263397-15.770287,4.162902-6.187179,2.314331-8.906181,2.091767-11.618522-2.335205-3.52517-5.753723-2.978791-11.815185,1.786125-15.154358c7.592651-5.320861,16.369652-7.350433,25.442939-7.713714c4.945389-.197937,10.024354.19049,14.885743,1.129272c19.152786,3.698517,30.121154,17.497132,30.381759,38.14267.191269,15.152069.075577,30.308502.031647,45.46283-.020554,7.087707-4.048691,10.724761-11.897003,10.945098-8.027893.225403-12.003693-3.016449-12.5009-10.189697-.045227-.652344-.110306-1.303345-.239808-2.813934-2.188873,1.983215-3.888168,3.610595-5.678741,5.130401-8.952423,7.598511-19.008286,11.476105-30.891037,8.959046-10.418732-2.20697-16.904205-9.071594-18.613968-19.577057-1.450966-8.915314-.433647-17.245575,5.914673-24.664032m21.425293,22.297852c5.452759,4.560638,10.688599,4.789672,16.873062.738128c7.548554-4.945251,11.045487-12.76889,8.848312-20.945221-5.789215.664551-11.780593.937103-17.589279,2.112488-9.694595,1.961639-12.585685,8.237396-8.132095,18.094605Z"
          fill="#f5a623"/>
    <path id="tiletango-logo-u-t"
          d="M33.017979,331.927551c-2.994414-.000213-5.492977.010987-7.991402-.002746-7.440943-.040955-10.913975-3.742981-10.937502-11.64444-.023714-7.964478,3.323441-11.615936,10.820318-11.622894c26.317505-.024414,52.635071-.024384,78.952576.001098c7.387772.007141,10.998138,3.944092,10.847015,11.653778-.152244,7.767212-3.785965,11.592286-11.085571,11.60965-8.48365.020172-16.967377.0047-26.305252.0047c0,2.173126.000008,4.075897,0,5.978637-.000076,34.812439-.074036,69.625184.078354,104.436951.023201,5.29892-1.267639,9.006836-6.700287,10.708985-6.432419,2.015411-15.031921.763549-17.579475-3.399109-1.191224-1.946442-1.420765-4.718323-1.426648-7.117707-.085331-34.812225-.05867-69.624725-.058792-104.437164-.000007-1.806824-.000003-3.613647-.000003-6.169708-6.290215,0-12.203816,0-18.613331-.000031Z"
          fill="#f5a623"/>
    <path id="tiletango-logo-u-e"
          d="M435.77124,305.348938c-16.396271-5.565613-26.506653-15.900085-27.10556-33.494568-.276276-8.11676-.537476-16.443024.90152-24.364197c2.700744-14.86705,17.702972-26.985702,33.600525-28.36293c14.139495-1.22493,26.386963,2.668427,35.579986,13.99202c6.282959,7.73909,7.864227,16.734146,6.098725,26.343261-1.124909,6.122315-5.516114,9.385682-12.814637,9.491272-11.324524.163819-22.652771.069825-33.979461.08429-1.80597.002289-3.611908.000336-5.337738.000336-2.171967,10.467651,5.27243,18.912323,17.001678,19.97467c7.652557.693085,14.329071-2.013733,21.013733-5.20163c5.963928-2.844207,10.270325-.921936,12.676788,5.093201c1.994324,4.984894-.328888,8.348847-4.125885,11.100891-9.403015,6.815277-20.169098,8.270661-31.356109,7.514771-3.952271-.26709-7.850556-1.332459-12.153565-2.171387m20.497467-50.182083c2.235962-.667908,6.282715-1.136093,6.382386-2.039642.357879-3.244965.222473-7.081528-1.259247-9.884079-3.434998-6.49704-12.813843-8.850083-20.26886-5.857987-7.305756,2.932175-10.10553,8.553146-8.51413,17.782654c7.506989,0,15.11142,0,23.659851-.000946Z"
          fill="#4a90e2"/>
    <path id="tiletango-logo-u-l"
          d="M392.007294,215c-.000153,27.150299.005859,53.800598-.004669,80.450897-.002778,7.018738-4.113617,10.604706-12.009369,10.539978-7.393341-.060577-11.183136-3.476318-11.185822-10.208618-.015411-38.642944-.015564-77.285873-.001526-115.928818.002686-7.363037,3.090668-9.966079,11.592468-9.906448c8.358918.058624,11.594025,2.84996,11.604187,10.074142.016144,11.492936.004548,22.985917.004731,34.978867Z"
          fill="#4a90e2"/>
    <g id="tiletango-logo-u-i">
        <path id="tiletango-logo-u-i-body"
              d="M340.313202,305.732849c-3.350342-.215423-6.423462-.106384-9.210236-.946838-3.624206-1.092987-5.729828-3.848694-5.728637-7.87909.006713-22.64627.010437-45.292541-.000306-67.938812-.002136-4.488022,2.238343-7.447037,6.522522-8.148575c3.355011-.549377,6.947846-.616241,10.289124-.044647c4.644897.794571,6.88504,3.787216,6.845978,8.863632-.1651,21.479447-.068207,42.960907-.070313,64.44162-.000732,7.680054-.901367,8.936524-8.648132,11.65271Z"
              fill="#4a90e2"/>
        <path id="tiletango-logo-u-i-dot"
              d="M346.222046,197.228912c-3.145477,1.396393-5.949951,3.200684-8.913696,3.518189-5.589051.598755-10.627015-3.055298-12.431641-8.116348-1.768372-4.95929.15918-8.78238,3.921234-11.874848c4.198853-3.451477,10.849823-3.713501,15.446259-.778427c6.475311,4.134811,7.320923,10.528061,1.977844,17.251434Z"
              fill="#4a90e2"/>
    </g>
    <path id="tiletango-logo-u-t2"
          d="M269.000092,173.485016c11.986938.000763,23.474395-.064469,34.960601.024719c7.512207.058304,10.300934,3.132919,10.233277,10.888001-.066986,7.675201-2.903809,10.520034-10.540833,10.53273-7.450744.012375-14.901581.002701-22.966949.002701c0,2.454177,0,4.393173-.000031,6.332168-.000122,31.13121-.057556,62.262619.058014,93.393417.018524,4.987946-.983063,8.782898-6.289642,10.48816-5.47406,1.759124-13.451142.804901-15.851074-2.756501-1.180085-1.75122-1.558045-4.333007-1.564698-6.541168-.095611-31.630371-.065796-63.261093-.066162-94.891739-.00003-1.796753,0-3.593506,0-6.024673-8.171722,0-15.93425.013687-23.696716-.003983-7.278381-.016571-10.167099-2.927383-10.29361-10.316314-.132797-7.756974,2.740662-11.044114,10.058289-11.10109c11.819183-.092041,23.639618-.026077,35.959534-.026428Z"
          fill="#4a90e2"/>
    <g id="tiletango-logo-u-dots" transform="translate(.000001 0.000001)">
        <path id="tiletango-logo-u-blue-dot"
              d="M138.943695,291.683594c-29.527359-.9422-51.032539-14.003449-63.57177-40.461716-18.991478-40.072754,6.837395-88.875915,50.617127-96.188095c45.451668-7.5914,84.959938,28.828094,80.910896,74.585266-2.888412,32.641144-29.910187,59.270416-62.536194,61.633484-1.660019.120239-3.316955.282867-5.420059.431061Z"
              fill="#4a90e2"/>
        <path id="tiletango-logo-u-blue-dot2"
              d="M138.943695,291.683594c-29.527359-.9422-51.032539-14.003449-63.57177-40.461716-18.991478-40.072754,6.837395-88.875915,50.617127-96.188095c45.451668-7.5914,84.959938,28.828094,80.910896,74.585266-2.888412,32.641144-29.910187,59.270416-62.536194,61.633484-1.660019.120239-3.316955.282867-5.420059.431061Z"
              transform="translate(155.909424-152.766892)" fill="#4a90e2"/>
        <path id="tiletango-logo-u-orange-dot"
              d="M138.943695,291.683594c-29.527359-.9422-51.032539-14.003449-63.57177-40.461716-18.991478-40.072754,6.837395-88.875915,50.617127-96.188095c45.451668-7.5914,84.959938,28.828094,80.910896,74.585266-2.888412,32.641144-29.910187,59.270416-62.536194,61.633484-1.660019.120239-3.316955.282867-5.420059.431061Z"
              transform="translate(0-152.766892)" fill="#f5a623"/>
    </g>
</svg>
